<svg width="56" height="56" viewBox="0 0 56 56" fill="none" xmlns="http://www.w3.org/2000/svg">
<rect x="17.7451" y="1.84814" width="39.1625" height="39.1625" rx="6" transform="rotate(23.9491 17.7451 1.84814)" fill="#F2F2F2"/>
<rect x="27.692" width="39.1625" height="39.1625" rx="6" transform="rotate(45 27.692 0)" fill="#F41616"/>
<path fill-rule="evenodd" clip-rule="evenodd" d="M33.2049 40.4029L33.0698 40.4818L27.7316 43.5738L22.3952 40.4818L17.0588 37.3916V32.4413L22.6549 34.1663L27.7316 37.1073L33.2049 40.4029Z" fill="#F2F2F2"/>
<path fill-rule="evenodd" clip-rule="evenodd" d="M22.6637 40.638L22.3952 40.4818L17.0588 37.3916V31.2094V31.0111V25.0289V24.8289V18.6484L22.9726 19.2732L22.6549 21.8738V23.4163V27.7542V28.2859V32.8519V34.1663L22.6637 40.638Z" fill="#F2F2F2"/>
<path fill-rule="evenodd" clip-rule="evenodd" d="M27.7317 12.4662L32.5891 15.2792L27.7317 18.9327L22.6551 21.8737L17.059 25.3869V25.0289V24.8289V18.6484L22.3954 15.5564L27.7317 12.4662Z" fill="#F2F2F2"/>
<path fill-rule="evenodd" clip-rule="evenodd" d="M27.7314 12.4662L33.0696 15.5564L38.406 18.6484V24.8289V25.0289V25.0482L32.7765 21.8544L27.7314 18.9327L22.395 15.5564L27.7314 12.4662Z" fill="#F2F2F2"/>
<path fill-rule="evenodd" clip-rule="evenodd" d="M38.4061 18.6484V24.8289V25.0289V25.0482L33.3102 28.0191L27.8334 31.3059V24.7341L32.7767 21.8545L38.4061 18.6484Z" fill="#F2F2F2"/>
<path fill-rule="evenodd" clip-rule="evenodd" d="M33.3102 28.0191L38.4061 30.99V31.0111V31.2094V37.3916L32.7767 34.1856L27.8334 31.3059V24.7341L33.3102 28.0191Z" fill="#F2F2F2"/>
<path fill-rule="evenodd" clip-rule="evenodd" d="M38.4061 31.0111V31.2094V37.3916L33.2048 40.4029L27.7316 37.1073L32.7767 34.1856L38.4061 31.0111Z" fill="#F2F2F2"/>
</svg>
